# xmcd
#
# Track frame offsets: 
#        150
#        14138
#        35440
#        45113
#        62753
#        80738
#        91121
#        107640
#        119407
#        134477
#        147126
#        156290
#        168191
#        180636
#
# Disc length: 2551 seconds
#
# Revision: 0
# Processed by: cddbd v1.5.2PL0 Copyright (c) Steve Scherf et al.
# Submitted via: ExactAudioCopyFreeDBPlugin 1.0
#
DISCID=b609f50e
DTITLE=diverse - Best Of Country
DYEAR=1900
DGENRE=Country
TTITLE0=John Denver - Take Me Home Country Roads
TTITLE1=Olivia Newton-John - Banks Of Ohio
TTITLE2=Billy Swan - I Can Help
TTITLE3=Crystal Gayle - Our Love Is On The Fault Line
TTITLE4=Kris Kristofferson - A Moment Of Forever
TTITLE5=Ferlin Husky - Wings Of A Dove
TTITLE6=Gordon Lightfoot - Diddley Dee, Diddley Dee
TTITLE7="Tennessee" Ernie Ford - Sixteen Tons
TTITLE8=Billie Davis - Angel Of The Morning
TTITLE9=Claude King - Wolverton Mountain
TTITLE10=Jim Reeves - I Won't Forget You
TTITLE11=Stonewall Jackson - Waterloo
TTITLE12=Bobby Bare - Music City U.S.A.
TTITLE13=Roger Miller - King Of The Road
EXTD=
EXTT0=
EXTT1=
EXTT2=
EXTT3=
EXTT4=
EXTT5=
EXTT6=
EXTT7=
EXTT8=
EXTT9=
EXTT10=
EXTT11=
EXTT12=
EXTT13=
PLAYORDER=
